<svg id="Шар_1" data-name="Шар 1" xmlns="http://www.w3.org/2000/svg" width="346.73" height="306.99" viewBox="0 0 346.73 306.99"><defs><style>.cls-1,.cls-6{fill:#ebebeb;}.cls-2{fill:#e6e6e6;}.cls-3{fill:#f0f0f0;}.cls-4{fill:#fafafa;}.cls-10,.cls-5{fill:#fff;}.cls-6{opacity:0.6;}.cls-10,.cls-6{isolation:isolate;}.cls-7{fill:#f5f5f5;}.cls-8{fill:#e0e0e0;}.cls-9{fill:#407bff;}.cls-10{opacity:0.5;}</style></defs><rect class="cls-1" x="1.51" y="269.78" width="317" height="0.21"/><rect class="cls-1" x="311.94" y="283.04" width="27.29" height="0.21"/><rect class="cls-1" x="234.28" y="285.28" width="7.16" height="0.21"/><rect class="cls-1" x="295.31" y="275.39" width="15.81" height="0.21"/><rect class="cls-1" x="11.74" y="276.77" width="35.59" height="0.21"/><rect class="cls-1" x="54.67" y="276.77" width="5.22" height="0.21"/><rect class="cls-1" x="76.85" y="280.25" width="77.19" height="0.21"/><path class="cls-1" d="M163.8,233H4.7A4.71,4.71,0,0,1,0,228.32V4.66A4.7,4.7,0,0,1,4.7,0H163.8a4.71,4.71,0,0,1,4.71,4.71h0V228.32A4.71,4.71,0,0,1,163.8,233ZM4.7.16A4.5,4.5,0,0,0,.21,4.66V228.32a4.5,4.5,0,0,0,4.49,4.5H163.8a4.52,4.52,0,0,0,4.5-4.5V4.66a4.52,4.52,0,0,0-4.5-4.5Z"/><path class="cls-1" d="M342,233H182.93a4.72,4.72,0,0,1-4.71-4.71V4.66A4.71,4.71,0,0,1,182.93,0H342a4.7,4.7,0,0,1,4.69,4.66V228.32A4.69,4.69,0,0,1,342,233ZM182.93.16a4.52,4.52,0,0,0-4.5,4.5V228.32a4.52,4.52,0,0,0,4.5,4.5H342a4.52,4.52,0,0,0,4.5-4.5V4.66A4.52,4.52,0,0,0,342,.16Z"/><rect class="cls-2" x="207.22" y="23.76" width="113.53" height="74.35"/><rect class="cls-3" x="203.75" y="23.76" width="115.38" height="74.35"/><rect class="cls-2" x="207.22" y="98.1" width="113.53" height="14.59"/><rect class="cls-3" x="197.99" y="98.1" width="115.38" height="14.59"/><rect class="cls-4" x="208.6" y="28.61" width="105.68" height="64.65"/><polygon class="cls-5" points="290.45 93.25 276.95 28.61 255.89 28.61 269.39 93.25 290.45 93.25"/><path class="cls-3" d="M312,88.43a.35.35,0,0,0,.35-.34h0V31.77a.35.35,0,0,0-.35-.35h0a.34.34,0,0,0-.35.33h0V88.08a.35.35,0,0,0,.34.35h0Z"/><polygon class="cls-5" points="264.87 93.25 251.37 28.61 243.15 28.61 256.66 93.25 264.87 93.25"/><rect class="cls-2" x="208.6" y="28.61" width="0.62" height="64.65"/><polygon class="cls-6" points="202.61 35.92 316.14 35.92 316.59 30.49 203.06 30.49 202.61 35.92"/><polygon class="cls-6" points="202.61 44.82 316.14 44.82 316.59 39.4 203.06 39.4 202.61 44.82"/><polygon class="cls-6" points="202.61 53.72 316.14 53.72 316.59 48.3 203.06 48.3 202.61 53.72"/><polygon class="cls-6" points="202.61 62.62 316.14 62.62 316.59 57.19 203.06 57.19 202.61 62.62"/><polygon class="cls-6" points="202.61 71.52 316.14 71.52 316.59 66.09 203.06 66.09 202.61 71.52"/><polygon class="cls-6" points="202.61 80.42 316.14 80.42 316.59 74.99 203.06 74.99 202.61 80.42"/><rect class="cls-2" x="280.65" y="215.71" width="23.81" height="4.7"/><rect class="cls-2" x="235.75" y="161.78" width="4.39" height="108"/><rect class="cls-7" x="220.52" y="215.71" width="60.12" height="4.7"/><rect class="cls-2" x="280.65" y="241.39" width="23.81" height="4.7"/><rect class="cls-7" x="220.52" y="241.38" width="60.12" height="4.7"/><rect class="cls-2" x="280.65" y="164.35" width="23.81" height="4.7"/><rect class="cls-7" x="220.52" y="164.34" width="60.12" height="4.7"/><rect class="cls-2" x="280.65" y="190.02" width="23.81" height="4.7"/><rect class="cls-7" x="220.52" y="190.02" width="60.12" height="4.7"/><rect class="cls-2" x="295.87" y="161.78" width="4.39" height="108"/><rect class="cls-7" x="276.25" y="161.78" width="4.39" height="108"/><rect class="cls-7" x="220.52" y="161.78" width="4.39" height="108"/><rect class="cls-2" x="22.39" y="182.52" width="44.97" height="87.25"/><polygon class="cls-4" points="34.39 269.78 22.38 269.78 22.38 257.73 46.98 257.73 34.39 269.78"/><rect class="cls-2" x="145" y="182.52" width="44.97" height="87.25"/><rect class="cls-4" x="22.39" y="182.52" width="133.1" height="83.11"/><polygon class="cls-4" points="143.47 269.78 155.48 269.78 155.48 257.73 130.88 257.73 143.47 269.78"/><rect class="cls-3" x="31.7" y="213.49" width="114.47" height="20.8"/><rect class="cls-3" x="31.7" y="238.73" width="114.47" height="20.8"/><path class="cls-4" d="M124.42,215.71h-71a3.77,3.77,0,0,1-3.77-3.77v-.25h78.49v.25A3.76,3.76,0,0,1,124.42,215.71Z"/><rect class="cls-3" x="31.7" y="188.24" width="114.47" height="20.8"/><path class="cls-4" d="M124.42,190.47h-71a3.77,3.77,0,0,1-3.77-3.78v-.25h78.49v.25A3.78,3.78,0,0,1,124.42,190.47Z"/><path class="cls-4" d="M124.42,241h-71a3.77,3.77,0,0,1-3.77-3.77v-.26h78.49v.26A3.76,3.76,0,0,1,124.42,241Z"/><rect class="cls-2" x="29.55" y="23.76" width="113.53" height="74.35"/><rect class="cls-3" x="26.09" y="23.76" width="115.38" height="74.35"/><rect class="cls-2" x="29.55" y="98.1" width="113.53" height="14.59"/><rect class="cls-3" x="20.31" y="98.1" width="115.38" height="14.59"/><rect class="cls-4" x="30.93" y="28.61" width="105.68" height="64.65"/><polygon class="cls-5" points="112.78 93.25 99.28 28.61 78.22 28.61 91.72 93.25 112.78 93.25"/><path class="cls-3" d="M134.36,88.43a.35.35,0,0,0,.35-.34h0V31.77a.34.34,0,0,0-.33-.35h0a.35.35,0,0,0-.35.35V88.08a.35.35,0,0,0,.34.35h0Z"/><polygon class="cls-5" points="87.2 93.25 73.7 28.61 65.48 28.61 78.98 93.25 87.2 93.25"/><rect class="cls-2" x="30.93" y="28.61" width="0.62" height="64.65"/><polygon class="cls-6" points="24.93 35.92 138.47 35.92 138.91 30.49 25.38 30.49 24.93 35.92"/><polygon class="cls-6" points="24.93 38.98 138.47 38.98 138.91 33.55 25.38 33.55 24.93 38.98"/><polygon class="cls-6" points="24.93 42.04 138.47 42.04 138.91 36.62 25.38 36.62 24.93 42.04"/><polygon class="cls-6" points="24.93 45.11 138.47 45.11 138.91 39.68 25.38 39.68 24.93 45.11"/><polygon class="cls-6" points="24.93 48.16 138.47 48.16 138.91 42.74 25.38 42.74 24.93 48.16"/><polygon class="cls-6" points="24.93 51.23 138.47 51.23 138.91 45.8 25.38 45.8 24.93 51.23"/><rect class="cls-7" x="47.64" y="136.11" width="3.92" height="43.75"/><rect class="cls-4" x="48.13" y="136.08" width="1.11" height="43.75"/><rect class="cls-4" x="49.7" y="136.08" width="0.44" height="43.75"/><path class="cls-3" d="M64.1,182.52h-29a3.64,3.64,0,0,1,3.65-3.65H60.46a3.65,3.65,0,0,1,3.66,3.65h0Z"/><path class="cls-3" d="M42.54,163.27h0a1.15,1.15,0,0,0,1.13-1.13V133.49a1.12,1.12,0,0,0-1.13-1.13h0a1.12,1.12,0,0,0-1.13,1.12h0v28.68A1.14,1.14,0,0,0,42.54,163.27Z"/><polygon class="cls-8" points="32.02 146.51 67.16 146.51 63.12 121.95 36.07 121.95 32.02 146.51"/><g id="freepik--Shadow--inject-2"><ellipse id="freepik--path--inject-2" class="cls-7" cx="174.51" cy="297.66" rx="159.77" ry="9.33"/></g><g id="freepik--window-no-data--inject-2"><rect class="cls-9" x="73.05" y="121.44" width="0.82" height="15.24" transform="translate(-9.08 5.61) rotate(-4.12)"/><rect class="cls-9" x="74.35" y="144.49" width="0.82" height="5.74" transform="translate(-10.39 5.75) rotate(-4.12)"/><path class="cls-9" d="M265.8,214.37H89.33a7.94,7.94,0,0,1-7.78-7.26L72.88,86.7A6.68,6.68,0,0,1,79,79.47H256.09a7.94,7.94,0,0,1,7.78,7.26l8.7,120.38a6.68,6.68,0,0,1-6.08,7.24h0Z"/><path class="cls-9" d="M266.47,214.37H90a7.94,7.94,0,0,1-7.78-7.26L73.56,86.7a6.68,6.68,0,0,1,6.07-7.23H256.76a8,8,0,0,1,7.78,7.26l8.67,120.41a6.68,6.68,0,0,1-6.07,7.23h-.67Z"/><path class="cls-10" d="M266.47,214.37H90a7.94,7.94,0,0,1-7.78-7.26L73.56,86.7a6.68,6.68,0,0,1,6.07-7.23H256.76a8,8,0,0,1,7.78,7.26l8.67,120.41a6.68,6.68,0,0,1-6.07,7.23h-.67Z"/><path class="cls-9" d="M257,83.08H80c-4.51.37-3.58,7.23,1,7.23H257.69c4.56,0,4.49-6.86-.07-7.23Z"/><path class="cls-4" d="M85.15,86.7a1.52,1.52,0,0,1-1.37,1.65H83.6a1.83,1.83,0,0,1-1.78-1.65,1.53,1.53,0,0,1,1.39-1.65h.15A1.81,1.81,0,0,1,85.15,86.7Z"/><path class="cls-4" d="M90.81,86.7a1.52,1.52,0,0,1-1.37,1.65h-.18a1.83,1.83,0,0,1-1.78-1.65,1.53,1.53,0,0,1,1.39-1.65H89A1.8,1.8,0,0,1,90.81,86.7Z"/><path class="cls-4" d="M96.47,86.7a1.52,1.52,0,0,1-1.38,1.65h-.17a1.82,1.82,0,0,1-1.78-1.65,1.53,1.53,0,0,1,1.38-1.65h.17A1.83,1.83,0,0,1,96.47,86.7Z"/><path class="cls-5" d="M261.79,202.36H93a2.88,2.88,0,0,1-2.82-2.64l-7.13-99a2.42,2.42,0,0,1,2.17-2.62H254.36a2.87,2.87,0,0,1,2.82,2.63l7.15,99a2.41,2.41,0,0,1-2.18,2.63h-.36Z"/><polygon class="cls-5" points="190.66 164.63 187.91 126.47 179.59 121.46 156.68 121.46 159.79 164.63 190.66 164.63"/><path class="cls-9" d="M190.67,165H159.79a.39.39,0,0,1-.4-.37l-3.11-43.18a.36.36,0,0,1,.11-.29.4.4,0,0,1,.29-.14h22.91l.21.06,8.32,5a.41.41,0,0,1,.2.31l2.73,38.17a.35.35,0,0,1-.1.31A.44.44,0,0,1,190.67,165Zm-30.49-.82h30l-2.7-37.54-8-4.82H157.1Z"/><polygon class="cls-1" points="187.91 126.47 179.59 121.46 182.65 128.1 187.91 126.47"/><path class="cls-9" d="M182.65,128.49a.39.39,0,0,1-.36-.23l-3.06-6.64a.42.42,0,0,1,.09-.47.42.42,0,0,1,.48,0l8.32,5a.42.42,0,0,1,.2.4.41.41,0,0,1-.28.33l-5.28,1.64Zm-2.15-6,2.36,5.15,4.12-1.26Z"/><path class="cls-9" d="M169.63,140.9a1.65,1.65,0,0,1-1.55,1.74H168a1.9,1.9,0,0,1-1.86-1.74,1.59,1.59,0,0,1,1.44-1.73h.21A1.9,1.9,0,0,1,169.63,140.9Z"/><path class="cls-9" d="M180.92,140.9a1.59,1.59,0,0,1-1.44,1.73h-.21a1.91,1.91,0,0,1-1.87-1.73,1.64,1.64,0,0,1,1.54-1.74h.11A1.9,1.9,0,0,1,180.92,140.9Z"/><path class="cls-9" d="M184.11,152.23a.42.42,0,0,1-.39-.38c-.21-2.8-4.61-5.09-9.81-5.09-3.45,0-6.59,1-8.08,2.68a3.08,3.08,0,0,0-.94,2.36.41.41,0,0,1-.38.44h0a.41.41,0,0,1-.44-.39,3.92,3.92,0,0,1,1.15-2.95c1.65-1.81,5-2.94,8.67-2.94,5.71,0,10.36,2.57,10.6,5.84a.41.41,0,0,1-.37.42h0Z"/><path class="cls-9" d="M163.18,137.38a.43.43,0,0,1-.28-.11.42.42,0,0,1,0-.57l1.76-1.89a.43.43,0,0,1,.56,0,.4.4,0,0,1,0,.56h0l-1.75,1.89A.42.42,0,0,1,163.18,137.38Z"/><path class="cls-9" d="M183.29,137.38a.54.54,0,0,1-.27-.11l-2-1.89a.4.4,0,0,1,0-.56h0a.43.43,0,0,1,.56,0l2,1.88a.4.4,0,0,1,0,.56h0A.4.4,0,0,1,183.29,137.38Z"/><path class="cls-9" d="M154.19,173.16h1.86l2.69,3.58-.26-3.58h1.88l.46,6.46h-1.9l-2.67-3.55.25,3.55h-1.88Z"/><path class="cls-9" d="M161.66,176.39a3.17,3.17,0,0,1,.71-2.47,3.11,3.11,0,0,1,2.39-.88,3.57,3.57,0,0,1,2.54.87,3.51,3.51,0,0,1,1,2.42,3.9,3.9,0,0,1-.25,1.85,2.43,2.43,0,0,1-1,1.13,3.38,3.38,0,0,1-1.76.4,4.46,4.46,0,0,1-1.84-.34,3.06,3.06,0,0,1-1.23-1.11A3.75,3.75,0,0,1,161.66,176.39Zm2,0a2.33,2.33,0,0,0,.46,1.4,1.3,1.3,0,0,0,1,.43,1.11,1.11,0,0,0,1-.42,2.18,2.18,0,0,0,.22-1.46,2,2,0,0,0-.46-1.34,1.37,1.37,0,0,0-1-.42,1.12,1.12,0,0,0-.94.43,2.14,2.14,0,0,0-.24,1.4Z"/><path class="cls-9" d="M172.22,173.16h3a3.84,3.84,0,0,1,1.43.24,2.4,2.4,0,0,1,.94.69,2.94,2.94,0,0,1,.59,1,5.77,5.77,0,0,1,.25,1.25,4.18,4.18,0,0,1-.13,1.61,2.22,2.22,0,0,1-.58,1,1.84,1.84,0,0,1-.83.51,4.67,4.67,0,0,1-1.17.18h-3Zm2.11,1.47.25,3.53h.49A2,2,0,0,0,176,178a.85.85,0,0,0,.38-.49,2.82,2.82,0,0,0,.06-1.12A2.2,2.2,0,0,0,176,175a1.49,1.49,0,0,0-1.14-.38Z"/><path class="cls-9" d="M183.18,178.55h-2.26l-.24,1.07h-2.05l2-6.46h2.2l2.9,6.46h-2.12Zm-.52-1.39-.87-2.32-.54,2.32Z"/><path class="cls-9" d="M184.77,173.16h6.06l.12,1.6h-2l.35,4.86h-2l-.34-4.86h-2Z"/><path class="cls-9" d="M195.48,178.55h-2.27l-.24,1.07h-2l2-6.46h2.21l2.89,6.46h-2.09Zm-.52-1.39-.88-2.32-.56,2.32Z"/></g></svg>