<svg id="Шар_1" data-name="Шар 1" xmlns="http://www.w3.org/2000/svg" width="500" height="500" viewBox="0 0 500 500"><defs><style>.cls-1,.cls-6{fill:#ebebeb;}.cls-2{fill:#e6e6e6;}.cls-3{fill:#f0f0f0;}.cls-4{fill:#fafafa;}.cls-10,.cls-5{fill:#fff;}.cls-6{opacity:0.6;}.cls-10,.cls-6{isolation:isolate;}.cls-7{fill:#f5f5f5;}.cls-8{fill:#e0e0e0;}.cls-9{fill:#407bff;}.cls-10{opacity:0.5;}</style></defs><g id="freepik--background-complete--inject-2"><rect class="cls-1" y="382.4" width="500" height="0.25"/><rect class="cls-1" x="416.78" y="398.49" width="33.12" height="0.25"/><rect class="cls-1" x="322.53" y="401.21" width="8.69" height="0.25"/><rect class="cls-1" x="396.59" y="389.21" width="19.19" height="0.25"/><rect class="cls-1" x="52.46" y="390.89" width="43.19" height="0.25"/><rect class="cls-1" x="104.56" y="390.89" width="6.33" height="0.25"/><rect class="cls-1" x="131.47" y="395.11" width="93.68" height="0.25"/><path class="cls-1" d="M237,337.8H43.91a5.71,5.71,0,0,1-5.7-5.71V60.66A5.71,5.71,0,0,1,43.91,55H237a5.71,5.71,0,0,1,5.71,5.71h0V332.09A5.71,5.71,0,0,1,237,337.8ZM43.91,55.2a5.46,5.46,0,0,0-5.45,5.46V332.09a5.46,5.46,0,0,0,5.45,5.46H237a5.48,5.48,0,0,0,5.46-5.46V60.66A5.48,5.48,0,0,0,237,55.2Z"/><path class="cls-1" d="M453.31,337.8H260.21a5.73,5.73,0,0,1-5.71-5.71V60.66A5.72,5.72,0,0,1,260.21,55h193.1A5.71,5.71,0,0,1,459,60.66V332.09A5.7,5.7,0,0,1,453.31,337.8ZM260.21,55.2a5.48,5.48,0,0,0-5.46,5.46V332.09a5.48,5.48,0,0,0,5.46,5.46h193.1a5.48,5.48,0,0,0,5.46-5.46V60.66a5.48,5.48,0,0,0-5.46-5.46Z"/><rect class="cls-2" x="289.69" y="83.83" width="137.78" height="90.23"/><rect class="cls-3" x="285.48" y="83.83" width="140.02" height="90.23"/><rect class="cls-2" x="289.69" y="174.05" width="137.78" height="17.71"/><rect class="cls-3" x="278.49" y="174.05" width="140.02" height="17.71"/><rect class="cls-4" x="291.37" y="89.72" width="128.25" height="78.46"/><polygon class="cls-5" points="390.7 168.17 374.32 89.72 348.76 89.72 365.14 168.17 390.7 168.17"/><path class="cls-3" d="M416.9,162.32a.42.42,0,0,0,.42-.42h0V93.55a.42.42,0,0,0-.42-.42h0a.41.41,0,0,0-.42.4v68.36a.42.42,0,0,0,.41.43Z"/><polygon class="cls-5" points="359.65 168.17 343.27 89.72 333.3 89.72 349.69 168.17 359.65 168.17"/><rect class="cls-2" x="291.37" y="89.72" width="0.75" height="78.46"/><polygon class="cls-6" points="284.1 98.59 421.88 98.59 422.42 92 284.64 92 284.1 98.59"/><polygon class="cls-6" points="284.1 109.39 421.88 109.39 422.42 102.81 284.64 102.81 284.1 109.39"/><polygon class="cls-6" points="284.1 120.19 421.88 120.19 422.42 113.61 284.64 113.61 284.1 120.19"/><polygon class="cls-6" points="284.1 131 421.88 131 422.42 124.41 284.64 124.41 284.1 131"/><polygon class="cls-6" points="284.1 141.8 421.88 141.8 422.42 135.21 284.64 135.21 284.1 141.8"/><polygon class="cls-6" points="284.1 152.6 421.88 152.6 422.42 146.01 284.64 146.01 284.1 152.6"/><rect class="cls-2" x="378.8" y="316.78" width="28.89" height="5.7"/><rect class="cls-2" x="324.31" y="251.33" width="5.33" height="131.07"/><rect class="cls-7" x="305.83" y="316.78" width="72.96" height="5.7"/><rect class="cls-2" x="378.8" y="347.95" width="28.89" height="5.7"/><rect class="cls-7" x="305.83" y="347.94" width="72.96" height="5.7"/><rect class="cls-2" x="378.8" y="254.45" width="28.89" height="5.7"/><rect class="cls-7" x="305.83" y="254.44" width="72.96" height="5.7"/><rect class="cls-2" x="378.8" y="285.61" width="28.89" height="5.7"/><rect class="cls-7" x="305.83" y="285.61" width="72.96" height="5.7"/><rect class="cls-2" x="397.28" y="251.33" width="5.33" height="131.07"/><rect class="cls-7" x="373.46" y="251.33" width="5.33" height="131.07"/><rect class="cls-7" x="305.83" y="251.33" width="5.33" height="131.07"/><rect class="cls-2" x="65.38" y="276.51" width="54.58" height="105.89"/><polygon class="cls-4" points="79.95 382.4 65.37 382.4 65.37 367.78 95.23 367.78 79.95 382.4"/><rect class="cls-2" x="214.18" y="276.51" width="54.58" height="105.89"/><rect class="cls-4" x="65.38" y="276.5" width="161.53" height="100.86"/><polygon class="cls-4" points="212.33 382.4 226.9 382.4 226.9 367.78 197.05 367.78 212.33 382.4"/><rect class="cls-3" x="76.68" y="314.09" width="138.92" height="25.24"/><rect class="cls-3" x="76.68" y="344.72" width="138.92" height="25.24"/><path class="cls-4" d="M189.2,316.79H103.09a4.58,4.58,0,0,1-4.58-4.58v-.31h95.26v.31A4.58,4.58,0,0,1,189.2,316.79Z"/><rect class="cls-3" x="76.68" y="283.45" width="138.92" height="25.24"/><path class="cls-4" d="M189.2,286.15H103.09a4.58,4.58,0,0,1-4.58-4.58v-.31h95.26v.31A4.58,4.58,0,0,1,189.2,286.15Z"/><path class="cls-4" d="M189.2,347.43H103.09a4.58,4.58,0,0,1-4.58-4.58v-.31h95.26v.31A4.58,4.58,0,0,1,189.2,347.43Z"/><rect class="cls-2" x="74.07" y="83.83" width="137.78" height="90.23"/><rect class="cls-3" x="69.87" y="83.83" width="140.02" height="90.23"/><rect class="cls-2" x="74.07" y="174.05" width="137.78" height="17.71"/><rect class="cls-3" x="62.86" y="174.05" width="140.02" height="17.71"/><rect class="cls-4" x="75.75" y="89.72" width="128.25" height="78.46"/><polygon class="cls-5" points="175.08 168.17 158.7 89.72 133.14 89.72 149.52 168.17 175.08 168.17"/><path class="cls-3" d="M201.27,162.32a.42.42,0,0,0,.42-.42h0V93.55a.41.41,0,0,0-.4-.42h0a.42.42,0,0,0-.42.42v68.34a.42.42,0,0,0,.41.43Z"/><polygon class="cls-5" points="144.03 168.17 127.65 89.72 117.68 89.72 134.06 168.17 144.03 168.17"/><rect class="cls-2" x="75.75" y="89.72" width="0.75" height="78.46"/><polygon class="cls-6" points="68.47 98.59 206.25 98.59 206.79 92 69.01 92 68.47 98.59"/><polygon class="cls-6" points="68.47 102.31 206.25 102.31 206.79 95.72 69.01 95.72 68.47 102.31"/><polygon class="cls-6" points="68.47 106.02 206.25 106.02 206.79 99.44 69.01 99.44 68.47 106.02"/><polygon class="cls-6" points="68.47 109.74 206.25 109.74 206.79 103.15 69.01 103.15 68.47 109.74"/><polygon class="cls-6" points="68.47 113.45 206.25 113.45 206.79 106.87 69.01 106.87 68.47 113.45"/><polygon class="cls-6" points="68.47 117.17 206.25 117.17 206.79 110.58 69.01 110.58 68.47 117.17"/><rect class="cls-7" x="96.02" y="220.18" width="4.76" height="53.09"/><rect class="cls-4" x="96.62" y="220.15" width="1.35" height="53.09"/><rect class="cls-4" x="98.53" y="220.15" width="0.53" height="53.09"/><path class="cls-3" d="M116,276.51H80.79a4.44,4.44,0,0,1,4.44-4.44h26.35a4.44,4.44,0,0,1,4.44,4.44h0Z"/><path class="cls-3" d="M89.84,253.14h0a1.39,1.39,0,0,0,1.37-1.37V217a1.37,1.37,0,0,0-1.37-1.37h0A1.37,1.37,0,0,0,88.46,217h0v34.81A1.39,1.39,0,0,0,89.84,253.14Z"/><polygon class="cls-8" points="77.07 232.8 119.72 232.8 114.81 203 81.98 203 77.07 232.8"/></g><g id="freepik--Shadow--inject-2"><ellipse id="freepik--path--inject-2" class="cls-7" cx="250" cy="416.24" rx="193.89" ry="11.32"/></g><g id="freepik--window-no-data--inject-2"><rect class="cls-9" x="126.86" y="202.37" width="1" height="18.49" transform="translate(-14.87 9.7) rotate(-4.12)"/><rect class="cls-9" x="128.45" y="230.35" width="1" height="6.96" transform="translate(-16.47 9.87) rotate(-4.12)"/><path class="cls-9" d="M360.78,315.16H146.62a9.65,9.65,0,0,1-9.44-8.81L126.66,160.22a8.1,8.1,0,0,1,7.37-8.77c.27,0,.53,0,.8,0H349a9.64,9.64,0,0,1,9.44,8.8L369,306.35a8.11,8.11,0,0,1-7.38,8.78C361.31,315.15,361.05,315.16,360.78,315.16Z"/><path class="cls-9" d="M361.6,315.16H147.44a9.65,9.65,0,0,1-9.44-8.81L127.48,160.22a8.1,8.1,0,0,1,7.37-8.77c.27,0,.53,0,.8,0H349.81a9.64,9.64,0,0,1,9.44,8.8l10.52,146.13a8.1,8.1,0,0,1-7.36,8.78Z"/><path class="cls-10" d="M361.6,315.16H147.44a9.65,9.65,0,0,1-9.44-8.81L127.48,160.22a8.1,8.1,0,0,1,7.37-8.77c.27,0,.53,0,.8,0H349.81a9.64,9.64,0,0,1,9.44,8.8l10.52,146.13a8.1,8.1,0,0,1-7.36,8.78Z"/><path class="cls-9" d="M350.13,155.82H135.25c-5.47.45-4.35,8.78,1.17,8.78H350.94c5.53,0,5.45-8.33-.09-8.78Z"/><path class="cls-4" d="M141.55,160.22a1.84,1.84,0,0,1-1.69,2h-.19a2.21,2.21,0,0,1-2.16-2,1.85,1.85,0,0,1,1.7-2h.17A2.2,2.2,0,0,1,141.55,160.22Z"/><path class="cls-4" d="M148.42,160.22a1.84,1.84,0,0,1-1.69,2h-.19a2.21,2.21,0,0,1-2.16-2,1.85,1.85,0,0,1,1.7-2h.17A2.2,2.2,0,0,1,148.42,160.22Z"/><path class="cls-4" d="M155.28,160.22a1.84,1.84,0,0,1-1.69,2h-.18a2.19,2.19,0,0,1-2.16-2,1.84,1.84,0,0,1,1.67-2h.2A2.2,2.2,0,0,1,155.28,160.22Z"/><path class="cls-5" d="M355.92,300.58H151.07a3.49,3.49,0,0,1-3.42-3.2L139,177.21a2.92,2.92,0,0,1,2.64-3.18H346.9a3.47,3.47,0,0,1,3.42,3.19L359,297.38a2.93,2.93,0,0,1-2.66,3.19A2.67,2.67,0,0,1,355.92,300.58Z"/><polygon class="cls-5" points="269.6 254.8 266.26 208.48 256.16 202.4 228.35 202.4 232.13 254.8 269.6 254.8"/><path class="cls-9" d="M269.6,255.28H232.13a.48.48,0,0,1-.49-.45l-3.77-52.4a.49.49,0,0,1,.13-.36.48.48,0,0,1,.35-.16h27.81a.52.52,0,0,1,.25.07l10.1,6.08a.47.47,0,0,1,.24.38l3.32,46.32a.43.43,0,0,1-.13.37A.49.49,0,0,1,269.6,255.28Zm-37-1h36.47l-3.28-45.55-9.72-5.85h-27.2Z"/><polygon class="cls-1" points="266.26 208.48 256.16 202.4 259.87 210.46 266.26 208.48"/><path class="cls-9" d="M259.87,210.94a.49.49,0,0,1-.44-.28l-3.71-8.06a.51.51,0,0,1,.11-.57.5.5,0,0,1,.58-.05l10.1,6.08a.5.5,0,0,1,.24.48.48.48,0,0,1-.34.4l-6.4,2Zm-2.61-7.32,2.87,6.25,5-1.53Z"/><path class="cls-9" d="M244.07,226a2,2,0,0,1-1.89,2.11h-.11a2.31,2.31,0,0,1-2.26-2.11,1.94,1.94,0,0,1,1.75-2.11h.25A2.32,2.32,0,0,1,244.07,226Z"/><path class="cls-9" d="M257.77,226a1.93,1.93,0,0,1-1.76,2.1h-.24A2.32,2.32,0,0,1,253.5,226a2,2,0,0,1,1.88-2.12h.12A2.31,2.31,0,0,1,257.77,226Z"/><path class="cls-9" d="M261.65,239.74a.49.49,0,0,1-.48-.45c-.25-3.41-5.59-6.18-11.9-6.18-4.19,0-8,1.25-9.81,3.25a3.75,3.75,0,0,0-1.14,2.86.5.5,0,0,1-.46.54.51.51,0,0,1-.54-.47,4.77,4.77,0,0,1,1.4-3.59c2-2.19,6.07-3.56,10.52-3.56,6.93,0,12.58,3.11,12.86,7.08a.48.48,0,0,1-.45.51h0Z"/><path class="cls-9" d="M236.24,221.72a.51.51,0,0,1-.33-.13.49.49,0,0,1,0-.69l2.13-2.29a.5.5,0,0,1,.68,0,.48.48,0,0,1,0,.68h0l-2.13,2.29A.5.5,0,0,1,236.24,221.72Z"/><path class="cls-9" d="M260.65,221.72a.57.57,0,0,1-.33-.13l-2.45-2.29a.49.49,0,0,1,0-.68h0a.5.5,0,0,1,.68,0L261,220.9a.48.48,0,0,1,0,.68h0A.5.5,0,0,1,260.65,221.72Z"/><path class="cls-9" d="M225.33,265.15h2.26l3.26,4.34-.31-4.34h2.28l.56,7.84h-2.31l-3.24-4.31.31,4.31h-2.28Z"/><path class="cls-9" d="M234.4,269.07a3.83,3.83,0,0,1,.86-3,3.74,3.74,0,0,1,2.9-1.07,4.39,4.39,0,0,1,3.09,1.05,4.28,4.28,0,0,1,1.27,2.94,4.79,4.79,0,0,1-.3,2.25,3,3,0,0,1-1.24,1.37,4.16,4.16,0,0,1-2.14.49,5.36,5.36,0,0,1-2.23-.42,3.73,3.73,0,0,1-1.5-1.34A4.66,4.66,0,0,1,234.4,269.07Zm2.43,0a2.75,2.75,0,0,0,.56,1.7,1.58,1.58,0,0,0,1.24.52,1.38,1.38,0,0,0,1.17-.51,2.75,2.75,0,0,0,.27-1.78,2.51,2.51,0,0,0-.56-1.62,1.63,1.63,0,0,0-1.25-.51,1.37,1.37,0,0,0-1.14.52,2.59,2.59,0,0,0-.29,1.7Z"/><path class="cls-9" d="M247.22,265.15h3.6a4.46,4.46,0,0,1,1.74.29,3,3,0,0,1,1.14.83,3.62,3.62,0,0,1,.71,1.25,6.5,6.5,0,0,1,.3,1.52,4.94,4.94,0,0,1-.15,1.95,2.79,2.79,0,0,1-.71,1.16,2.32,2.32,0,0,1-1,.62,5.69,5.69,0,0,1-1.43.22h-3.59Zm2.55,1.78.31,4.28h.59a2.43,2.43,0,0,0,1.07-.17,1,1,0,0,0,.46-.59,3.47,3.47,0,0,0,.08-1.36,2.73,2.73,0,0,0-.53-1.7,1.78,1.78,0,0,0-1.38-.46Z"/><path class="cls-9" d="M260.52,271.69h-2.75l-.29,1.3H255l2.38-7.84h2.68l3.51,7.84H261Zm-.63-1.69-1.06-2.82-.66,2.82Z"/><path class="cls-9" d="M262.44,265.15h7.36l.14,1.94h-2.47l.42,5.9h-2.42l-.42-5.9h-2.47Z"/><path class="cls-9" d="M275.44,271.69h-2.75l-.29,1.3h-2.47l2.38-7.84H275l3.5,7.84h-2.53Zm-.63-1.69-1.07-2.82-.67,2.82Z"/></g></svg>