<svg id="Шар_2" data-name="Шар 2" xmlns="http://www.w3.org/2000/svg" width="256" height="256" viewBox="0 0 256 256"><defs><style>.cls-1{fill:#008cb6;}</style></defs><path class="cls-1" d="M149.61,188.25a40.5,40.5,0,1,1,40.5-40.5A40.55,40.55,0,0,1,149.61,188.25Zm0-74a33.5,33.5,0,1,0,33.5,33.5A33.54,33.54,0,0,0,149.61,114.25Z"/><path class="cls-1" d="M149.61,208.25a60.5,60.5,0,1,1,60.5-60.5A60.57,60.57,0,0,1,149.61,208.25Zm0-114a53.5,53.5,0,1,0,53.5,53.5A53.56,53.56,0,0,0,149.61,94.25Z"/><circle class="cls-1" cx="56.61" cy="105.75" r="9"/><circle class="cls-1" cx="118.11" cy="80.25" r="6"/><path class="cls-1" d="M228.61,196.75H204.07a4,4,0,0,1,0-8h20.54v-100h-22a4,4,0,0,1-3.37-1.85L179.42,55.75h-62.6L96,88.89a4,4,0,0,1-3.39,1.87H31.39v98H89.61a4,4,0,1,1,0,8H27.39a4,4,0,0,1-4-4v-106a4,4,0,0,1,4-4h63l20.83-33.14a4,4,0,0,1,3.38-1.87h67A4,4,0,0,1,185,49.6l19.82,31.15h23.8a4,4,0,0,1,4,4v108A4,4,0,0,1,228.61,196.75Z"/><path class="cls-1" d="M168.32,69.82H129.11a4,4,0,0,1,0-8h39.21a4,4,0,1,1,0,8Z"/><path class="cls-1" d="M66,76.25H45.23c-1.17,0-2.12-1.79-2.12-4s1-4,2.12-4H66c1.17,0,2.12,1.79,2.12,4S67.16,76.25,66,76.25Z"/></svg>