<svg id="Шар_1" data-name="Шар 1" xmlns="http://www.w3.org/2000/svg" width="25" height="25" viewBox="0 0 25 25"><defs><style>.cls-1{fill:#2b7efe;}.cls-2{fill:#00d2e9;}.cls-3{fill:#fff;}</style></defs><rect class="cls-1" x="2" y="2" width="21" height="21" rx="2.63"/><polygon class="cls-2" points="12.19 20.5 12.19 12.81 4.5 12.81 4.5 12.19 12.19 12.19 12.19 4.5 12.81 4.5 12.81 12.19 20.5 12.19 20.5 12.81 12.81 12.81 12.81 20.5 12.19 20.5"/><polygon class="cls-3" points="13.31 4 11.69 4 11.69 11.69 4 11.69 4 13.31 11.69 13.31 11.69 21 13.31 21 13.31 13.31 21 13.31 21 11.69 13.31 11.69 13.31 4 13.31 4"/></svg>